# xmcd
#
# Track frame offsets:
#	150
#	13082
#	30122
#	46720
#	63255
#	79787
#	98010
#	116167
#	131895
#	151130
#	164577
#	186352
#
# Disc length: 2612 seconds
#
# Revision: 1
# Processed by: cddbd v1.5PL3 Copyright (c) Steve Scherf et al.
# Submitted via: audiograbber 1.83.01
#
DISCID=910a320c
DTITLE=The Ridgedale Singers - Chart Busting Love Songs
DYEAR=1900
DGENRE=Country
TTITLE0=I'll Always Love You
TTITLE1=Have I Told You Lately
TTITLE2=Dreamlover
TTITLE3=When A Man Loves A Woman
TTITLE4=I Will Always Love You
TTITLE5=Everything I Do I Do For You
TTITLE6=When I Fall In Love
TTITLE7=Unchained Melody
TTITLE8=That's The Way Love Goes
TTITLE9=Can't Help Falling In Love
TTITLE10=Greatest Love Of All
TTITLE11=It Had To Be You
EXTD=
EXTT0=
EXTT1=
EXTT2=
EXTT3=
EXTT4=
EXTT5=
EXTT6=
EXTT7=
EXTT8=
EXTT9=
EXTT10=
EXTT11=
PLAYORDER=
